<svg class="variation-svg fade-enter-done" viewBox="136.086 98.29000091552734 302.828125 379.86499786376953" xmlns="http://www.w3.org/2000/svg" xmlns:xlink="http://www.w3.org/1999/xlink" style="transform: scale(1);"><image height="184.63691562023416" width="162.828125" y="168.29000091552734" x="206.086" preserveAspectRatio="xMinYMin" href="https://fiverr-res.cloudinary.com/image/upload/f_png,q_auto,t_makers_project_variation_preview/v1/secured-attachments/makers_project_variation/preview_file/df1fc44048f8cbdfe3f66313465e98d0-1664629549/633828566146c760d3c6ba9e.svg?__cld_token__=exp=1674839481~hmac=a06e6b14956e3d289c6079966a7e7cc6d6ec9207d493bcf36bd8898c4643ef68" xlink:href="https://fiverr-res.cloudinary.com/image/upload/f_png,q_auto,t_makers_project_variation_preview/v1/secured-attachments/makers_project_variation/preview_file/df1fc44048f8cbdfe3f66313465e98d0-1664629549/633828566146c760d3c6ba9e.svg?__cld_token__=exp=1674839481~hmac=a06e6b14956e3d289c6079966a7e7cc6d6ec9207d493bcf36bd8898c4643ef68" style="position: absolute;"></image><g><svg data-layer-type="text" y="411.8549995422363" viewBox="0 0 0 0" x="285.49997839355467" height="0" width="0" style="position: absolute;"><g data-horizontal-grow="center" style="fill: rgb(41, 57, 85); font-size: 18px; font-weight: 700; font-style: italic; font-family: &quot;Balsamiq Sans&quot;; dominant-baseline: hanging; letter-spacing: 0.25em; fill-opacity: 1;"><path d="" transform="translate(0, 0)"></path></g></svg></g><g><svg data-layer-type="text" y="371.1450004577637" viewBox="-0.23000000417232513 10.90999984741211 106.29000091552734 37.0099983215332" x="234.35499893188478" height="37.0099983215332" width="106.29000091552734" style="position: absolute;"><g data-horizontal-grow="center" style="fill: rgb(41, 57, 85); font-size: 38px; font-weight: 400; font-style: normal; font-family: Lora; dominant-baseline: hanging; text-transform: capitalize; fill-opacity: 1;"><path d="M6.88 38.23L-0.23 38.23L-0.23 36.97Q0.91 36.97 1.52 36.37Q2.13 35.76 2.53 34.69Q2.93 33.63 3.46 32.22L3.46 32.22L11.29 10.91L12.20 10.91L20.67 32.53Q20.98 33.33 21.36 34.58Q21.74 35.83 21.66 36.71L21.66 36.71Q22.31 36.67 22.95 36.63Q23.60 36.59 24.24 36.56L24.24 36.56L24.24 38.23L15.54 38.23L15.54 36.97Q16.99 36.94 17.44 36.33Q17.90 35.72 17.78 34.88Q17.67 34.05 17.40 33.36L17.40 33.36L16.07 29.79L6.19 30.02L4.86 34.09Q4.60 35.00 4.39 35.53Q4.18 36.06 3.91 36.71L3.91 36.71Q4.67 36.67 5.42 36.63Q6.16 36.59 6.88 36.56L6.88 36.56L6.88 38.23ZM9.46 20.75L6.76 28.39L15.54 28.39L12.84 21.13Q12.43 19.95 11.99 18.79Q11.55 17.63 11.13 16.45L11.13 16.45L11.06 16.45Q10.68 17.52 10.28 18.58Q9.88 19.65 9.46 20.75L9.46 20.75ZM43.47 38.23L38.04 38.23Q37.92 37.58 37.89 37.09Q37.85 36.59 37.77 36.06L37.77 36.06Q36.48 37.35 34.98 38.09Q33.48 38.84 31.81 38.84L31.81 38.84Q28.92 38.84 27.51 37.52Q26.11 36.21 26.11 34.31L26.11 34.31Q26.11 32.57 27.19 31.29Q28.27 30.02 30.00 29.20Q31.73 28.39 33.76 27.99Q35.80 27.59 37.70 27.63L37.70 27.63L37.70 25.27Q37.70 23.94 37.47 22.76Q37.24 21.58 36.48 20.82Q35.72 20.06 34.05 20.03L34.05 20.03Q32.95 19.99 31.79 20.44Q30.63 20.90 30.10 22.00L30.10 22.00Q30.40 22.31 30.50 22.71Q30.59 23.10 30.59 23.45L30.59 23.45Q30.59 23.90 30.21 24.49Q29.83 25.08 28.88 25.04L28.88 25.04Q28.08 25.04 27.66 24.49Q27.25 23.94 27.25 23.18L27.25 23.18Q27.25 21.89 28.21 20.86Q29.18 19.84 30.89 19.23Q32.60 18.62 34.77 18.62L34.77 18.62Q37.96 18.62 39.48 20.31Q41.00 22.00 40.96 25.65L40.96 25.65Q40.96 27.06 40.96 28.48Q40.96 29.91 40.95 31.33Q40.93 32.76 40.93 34.20L40.93 34.20Q40.93 34.81 40.89 35.42Q40.85 36.02 40.77 36.78L40.77 36.78Q41.46 36.75 42.12 36.71Q42.79 36.67 43.47 36.63L43.47 36.63L43.47 38.23ZM37.70 28.92L37.70 28.92Q36.40 28.96 34.98 29.24Q33.55 29.53 32.36 30.10Q31.16 30.67 30.42 31.60Q29.68 32.53 29.72 33.86L29.72 33.86Q29.79 35.26 30.65 35.97Q31.50 36.67 32.68 36.67L32.68 36.67Q34.24 36.67 35.40 36.08Q36.56 35.49 37.70 34.43L37.70 34.43Q37.66 34.01 37.66 33.52Q37.66 33.02 37.66 32.49L37.66 32.49Q37.66 32.30 37.68 31.27Q37.70 30.25 37.70 28.92ZM53.50 47.92L45.75 47.92L45.75 46.78Q46.93 46.78 47.39 46.19Q47.84 45.60 47.92 44.55Q47.99 43.51 47.99 42.14L47.99 42.14L48.07 23.79Q48.07 23.18 48.09 22.57Q48.11 21.96 48.22 21.32L48.22 21.32Q47.54 21.36 46.87 21.39Q46.21 21.43 45.52 21.47L45.52 21.47L45.52 19.87Q47.20 19.87 48.05 19.72Q48.91 19.57 49.30 19.34Q49.70 19.11 49.97 18.85L49.97 18.85L51.11 18.85Q51.15 19.23 51.19 19.74Q51.22 20.25 51.26 20.90L51.26 20.90Q52.40 19.87 53.98 19.25Q55.56 18.62 57.15 18.62L57.15 18.62Q59.36 18.62 61.26 19.76Q63.16 20.90 64.33 23.01Q65.51 25.12 65.51 28.04L65.51 28.04Q65.51 31.27 64.16 33.71Q62.81 36.14 60.61 37.49Q58.41 38.84 55.82 38.84L55.82 38.84Q54.49 38.84 53.37 38.51Q52.25 38.19 51.26 37.58L51.26 37.58L51.26 43.89Q51.26 44.65 51.24 45.24Q51.22 45.83 51.11 46.47L51.11 46.47Q51.72 46.44 52.31 46.42Q52.90 46.40 53.50 46.36L53.50 46.36L53.50 47.92ZM55.75 37.32L55.75 37.32Q57.57 37.32 58.88 36.20Q60.19 35.07 60.89 33.12Q61.60 31.16 61.60 28.65L61.60 28.65Q61.60 26.60 61.01 24.72Q60.42 22.84 59.15 21.66Q57.87 20.48 55.78 20.48L55.78 20.48Q54.49 20.48 53.29 21.11Q52.10 21.74 51.30 22.61L51.30 22.61Q51.30 22.76 51.32 23.05Q51.34 23.33 51.34 24.04Q51.34 24.74 51.34 26.13Q51.34 27.51 51.32 29.87Q51.30 32.22 51.30 35.83L51.30 35.83Q52.25 36.56 53.37 36.94Q54.49 37.32 55.75 37.32ZM78.05 38.84L78.05 38.84Q75.51 38.84 73.36 37.68Q71.21 36.52 69.94 34.33Q68.67 32.15 68.67 29.07L68.67 29.07Q68.67 27.09 69.39 25.23Q70.11 23.37 71.42 21.87Q72.73 20.37 74.56 19.49Q76.38 18.62 78.58 18.62L78.58 18.62Q80.71 18.62 82.29 19.27Q83.87 19.91 84.74 20.98Q85.61 22.04 85.61 23.29L85.61 23.29Q85.61 24.13 85.16 24.72Q84.70 25.31 83.83 25.31L83.83 25.31Q82.88 25.35 82.48 24.72Q82.08 24.09 82.08 23.60L82.08 23.60Q82.08 23.22 82.19 22.82Q82.31 22.42 82.65 22.08L82.65 22.08Q82.35 21.17 81.59 20.73Q80.83 20.29 80.01 20.16Q79.19 20.03 78.66 20.03L78.66 20.03Q76.08 20.03 74.31 22.10Q72.54 24.17 72.54 28.12L72.54 28.12Q72.54 30.67 73.36 32.64Q74.18 34.62 75.66 35.74Q77.14 36.86 79.08 36.86L79.08 36.86Q80.86 36.86 82.50 35.91Q84.13 34.96 85.04 33.59L85.04 33.59L86.03 34.35Q85.04 35.95 83.66 36.94Q82.27 37.92 80.81 38.38Q79.34 38.84 78.05 38.84ZM98.08 38.84L98.08 38.84Q95.53 38.84 93.39 37.68Q91.24 36.52 89.97 34.33Q88.69 32.15 88.69 29.07L88.69 29.07Q88.69 27.09 89.41 25.23Q90.14 23.37 91.45 21.87Q92.76 20.37 94.58 19.49Q96.41 18.62 98.61 18.62L98.61 18.62Q100.74 18.62 102.32 19.27Q103.89 19.91 104.77 20.98Q105.64 22.04 105.64 23.29L105.64 23.29Q105.64 24.13 105.18 24.72Q104.73 25.31 103.85 25.31L103.85 25.31Q102.90 25.35 102.51 24.72Q102.11 24.09 102.11 23.60L102.11 23.60Q102.11 23.22 102.22 22.82Q102.33 22.42 102.68 22.08L102.68 22.08Q102.37 21.17 101.61 20.73Q100.85 20.29 100.04 20.16Q99.22 20.03 98.69 20.03L98.69 20.03Q96.10 20.03 94.34 22.10Q92.57 24.17 92.57 28.12L92.57 28.12Q92.57 30.67 93.39 32.64Q94.20 34.62 95.68 35.74Q97.17 36.86 99.10 36.86L99.10 36.86Q100.89 36.86 102.52 35.91Q104.16 34.96 105.07 33.59L105.07 33.59L106.06 34.35Q105.07 35.95 103.68 36.94Q102.30 37.92 100.83 38.38Q99.37 38.84 98.08 38.84Z" transform="translate(0, 0)"></path></g></svg></g></svg>